<svg version="1.1" id="Layer_1" xmlns="http://www.w3.org/2000/svg" xmlns:xlink="http://www.w3.org/1999/xlink" x="0px" y="0px"
	 width="100%" viewBox="0 0 1038 521" enable-background="new 0 0 1038 521" xml:space="preserve">
<path fill="#000000" opacity="1.000000" stroke="none" 
	d="
M680.000000,522.000000 
	C453.333344,522.000000 227.166672,522.000000 1.000000,522.000000 
	C1.000000,348.333344 1.000000,174.666672 1.000000,1.000000 
	C347.000000,1.000000 693.000000,1.000000 1039.000000,1.000000 
	C1039.000000,174.666672 1039.000000,348.333344 1039.000000,522.000000 
	C919.500000,522.000000 800.000000,522.000000 680.000000,522.000000 
M423.657593,400.783020 
	C424.897858,400.131073 426.138092,399.479156 427.901337,399.242706 
	C436.903107,405.877899 446.973450,408.117615 458.135864,408.106232 
	C611.294434,407.949646 764.453247,408.001648 917.612000,408.005127 
	C919.278015,408.005157 920.944763,408.014282 922.609863,408.063934 
	C932.058044,408.345520 941.509827,408.932129 950.951965,408.801544 
	C955.308411,408.741333 959.951355,408.012329 963.934448,406.331055 
	C975.943726,401.261902 978.763245,390.249146 978.843750,378.935059 
	C979.427307,296.990417 979.685242,215.043213 979.908508,133.096466 
	C979.946472,119.147308 979.206604,105.197762 979.039978,91.245834 
	C978.878845,77.748398 979.057678,64.247108 978.939392,50.748802 
	C978.912048,47.635254 978.576660,44.459187 977.878479,41.428097 
	C974.940125,28.671543 966.872986,21.024929 956.433105,21.003878 
	C785.992432,20.660198 615.551758,20.328711 445.111023,20.016663 
	C433.747101,19.995857 423.111389,27.267786 420.073639,38.209610 
	C417.938812,45.898998 416.763489,53.969948 416.195770,61.944283 
	C415.705292,68.833580 416.975159,75.827759 416.955170,82.774094 
	C416.688446,175.384293 416.253937,267.994141 416.137329,360.604431 
	C416.127502,368.421722 418.096497,376.241486 419.031372,384.901367 
	C418.952606,386.613983 418.873871,388.326599 418.205841,390.385773 
	C404.450012,396.796539 390.648254,403.110931 376.949524,409.641449 
	C358.000793,418.674744 339.320953,428.298401 320.167053,436.866943 
	C303.713776,444.227356 292.468781,441.040833 282.768127,426.415558 
	C276.664673,417.213654 271.667694,407.281372 266.097717,397.721375 
	C253.883957,376.758331 241.601120,355.835602 229.384750,334.874084 
	C217.828598,315.045380 206.290726,295.205902 194.800659,275.338837 
	C181.577057,252.474411 168.304535,229.636978 155.284836,206.656616 
	C150.646347,198.469467 152.130310,191.908737 160.059799,186.983902 
	C174.497131,178.017227 189.272064,169.593338 203.923218,160.971985 
	C223.130280,149.669708 242.406723,138.484177 261.550720,127.076225 
	C273.169342,120.152657 284.146393,111.840172 297.597931,108.774620 
	C307.859314,106.436089 317.881836,106.922195 324.967499,116.489494 
	C327.217438,119.527390 329.383942,122.716530 331.005585,126.114685 
	C337.685059,140.111511 344.125031,154.222488 350.691528,168.273529 
	C351.939331,170.943497 353.094055,173.720245 354.774597,176.107880 
	C356.673004,178.804962 359.462646,179.051743 360.016815,175.376190 
	C360.574524,171.676941 360.738983,167.265366 359.237549,164.015030 
	C349.755219,143.487106 339.818451,123.167648 329.919098,102.834198 
	C322.001221,86.570679 305.229126,82.908127 289.949829,90.616051 
	C283.471069,93.884384 277.163300,97.507217 270.881317,101.147499 
	C237.740463,120.352043 204.696335,139.724380 171.490936,158.816437 
	C149.229477,171.616074 141.314407,187.989151 148.398621,212.552094 
	C151.584396,223.598129 158.023727,233.833374 163.785110,243.983337 
	C177.146774,267.522888 191.081512,290.736267 204.619324,314.176971 
	C217.006760,335.625793 229.031479,357.284668 241.483704,378.695312 
	C255.337753,402.516296 269.456177,426.184143 283.565338,449.855530 
	C285.429382,452.982880 285.778778,455.701355 283.194977,458.401215 
	C276.071655,465.844330 269.721313,474.336700 261.579529,480.428253 
	C246.704819,491.557281 238.052582,490.439270 226.332214,481.608032 
	C217.622711,475.045471 209.967499,467.058594 202.010468,459.528839 
	C192.223007,450.266876 182.634933,440.794647 172.916000,431.459778 
	C156.122299,415.329742 139.269028,399.261658 122.495636,383.110596 
	C117.371544,378.176636 117.357986,375.120819 122.338951,370.078491 
	C130.185654,362.135132 137.953506,354.101807 146.066513,346.436523 
	C156.492462,336.585907 167.399734,335.305634 178.232346,346.572296 
	C184.674896,353.272949 191.211685,359.891174 197.912445,366.331757 
	C201.177231,369.469727 205.187103,368.471313 205.682419,364.288269 
	C206.372910,358.456909 207.400864,352.174103 202.739990,347.270996 
	C193.273071,337.312042 183.968994,327.158783 173.945007,317.783600 
	C167.888794,312.119324 156.317932,312.362030 149.972855,317.721100 
	C136.900650,328.761871 124.316628,340.460785 114.903297,354.864075 
	C103.309219,372.604095 103.678169,391.502899 120.232506,406.754395 
	C131.598083,417.225464 142.829819,427.844055 154.009918,438.513519 
	C165.688232,449.658478 177.124252,461.058685 188.866592,472.134827 
	C200.819321,483.409393 212.553391,494.990784 225.249527,505.378998 
	C235.804947,514.015747 248.392838,516.890076 260.056183,507.125946 
	C270.239807,498.600677 279.095795,488.404968 287.936035,478.414276 
	C290.390991,475.639832 291.366669,471.050171 291.845642,467.148987 
	C292.617340,460.863495 293.187317,459.866364 299.786591,460.011383 
	C307.597229,460.182983 315.345490,460.246399 322.648621,456.704163 
	C336.761902,449.858856 350.908691,443.081329 365.086823,436.371246 
	C381.356720,428.671143 397.677551,421.078613 413.972382,413.431061 
	C419.215363,410.970398 423.096680,407.491180 423.657593,400.783020 
z"/>
<path fill="#BD2E1A" opacity="1.000000" stroke="none" 
	d="
M419.146210,384.060120 
	C418.096497,376.241486 416.127502,368.421722 416.137329,360.604431 
	C416.253937,267.994141 416.688446,175.384293 416.955170,82.774094 
	C416.975159,75.827759 415.705292,68.833580 416.195770,61.944283 
	C416.763489,53.969948 417.938812,45.898998 420.073639,38.209610 
	C423.111389,27.267786 433.747101,19.995857 445.111023,20.016663 
	C615.551758,20.328711 785.992432,20.660198 956.433105,21.003878 
	C966.872986,21.024929 974.940125,28.671543 977.878479,41.428097 
	C978.576660,44.459187 978.912048,47.635254 978.939392,50.748802 
	C979.057678,64.247108 978.878845,77.748398 979.039978,91.245834 
	C979.206604,105.197762 979.946472,119.147308 979.908508,133.096466 
	C979.685242,215.043213 979.427307,296.990417 978.843750,378.935059 
	C978.763245,390.249146 975.943726,401.261902 963.934448,406.331055 
	C959.951355,408.012329 955.308411,408.741333 950.951965,408.801544 
	C941.509827,408.932129 932.058044,408.345520 922.609863,408.063934 
	C920.944763,408.014282 919.278015,408.005157 917.612000,408.005127 
	C764.453247,408.001648 611.294434,407.949646 458.135864,408.106232 
	C446.973450,408.117615 436.903107,405.877899 427.504700,398.707092 
	C425.066742,395.439362 423.025360,392.707275 420.990387,389.987488 
	C420.996765,389.999817 421.018829,390.016602 421.054626,389.646912 
	C420.442383,387.538147 419.794312,385.799133 419.146210,384.060120 
M626.500000,47.976177 
	C586.007141,47.976208 545.514221,47.973270 505.021332,47.977509 
	C484.472076,47.979660 463.919067,47.768597 443.375275,48.108227 
	C434.354889,48.257355 427.036407,52.557072 427.926514,63.622963 
	C428.577209,71.712303 428.933105,79.847816 428.939301,87.963112 
	C429.008911,179.280273 429.018555,270.597534 428.942932,361.914673 
	C428.933868,372.853241 438.058990,380.418579 446.816284,380.913391 
	C458.577728,381.578064 470.373413,381.984192 482.151855,381.931854 
	C509.427979,381.810638 536.702393,381.086884 563.977905,381.066833 
	C694.954712,380.970459 825.931641,381.029480 956.908569,381.021942 
	C964.558960,381.021515 966.995972,378.573517 966.997253,371.077515 
	C967.015503,267.262756 967.033752,163.448029 967.049500,59.633282 
	C967.050720,51.492199 964.407654,48.706005 955.940674,47.987125 
	C954.451416,47.860687 952.942688,47.960339 951.442993,47.960407 
	C843.461975,47.965347 735.481018,47.970772 626.500000,47.976177 
z"/>
<path fill="#BB2F1B" opacity="1.000000" stroke="none" 
	d="
M423.030365,401.116943 
	C423.096680,407.491180 419.215363,410.970398 413.972382,413.431061 
	C397.677551,421.078613 381.356720,428.671143 365.086823,436.371246 
	C350.908691,443.081329 336.761902,449.858856 322.648621,456.704163 
	C315.345490,460.246399 307.597229,460.182983 299.786591,460.011383 
	C293.187317,459.866364 292.617340,460.863495 291.845642,467.148987 
	C291.366669,471.050171 290.390991,475.639832 287.936035,478.414276 
	C279.095795,488.404968 270.239807,498.600677 260.056183,507.125946 
	C248.392838,516.890076 235.804947,514.015747 225.249527,505.378998 
	C212.553391,494.990784 200.819321,483.409393 188.866592,472.134827 
	C177.124252,461.058685 165.688232,449.658478 154.009918,438.513519 
	C142.829819,427.844055 131.598083,417.225464 120.232506,406.754395 
	C103.678169,391.502899 103.309219,372.604095 114.903297,354.864075 
	C124.316628,340.460785 136.900650,328.761871 149.972855,317.721100 
	C156.317932,312.362030 167.888794,312.119324 173.945007,317.783600 
	C183.968994,327.158783 193.273071,337.312042 202.739990,347.270996 
	C207.400864,352.174103 206.372910,358.456909 205.682419,364.288269 
	C205.187103,368.471313 201.177231,369.469727 197.912445,366.331757 
	C191.211685,359.891174 184.674896,353.272949 178.232346,346.572296 
	C167.399734,335.305634 156.492462,336.585907 146.066513,346.436523 
	C137.953506,354.101807 130.185654,362.135132 122.338951,370.078491 
	C117.357986,375.120819 117.371544,378.176636 122.495636,383.110596 
	C139.269028,399.261658 156.122299,415.329742 172.916000,431.459778 
	C182.634933,440.794647 192.223007,450.266876 202.010468,459.528839 
	C209.967499,467.058594 217.622711,475.045471 226.332214,481.608032 
	C238.052582,490.439270 246.704819,491.557281 261.579529,480.428253 
	C269.721313,474.336700 276.071655,465.844330 283.194977,458.401215 
	C285.778778,455.701355 285.429382,452.982880 283.565338,449.855530 
	C269.456177,426.184143 255.337753,402.516296 241.483704,378.695312 
	C229.031479,357.284668 217.006760,335.625793 204.619324,314.176971 
	C191.081512,290.736267 177.146774,267.522888 163.785110,243.983337 
	C158.023727,233.833374 151.584396,223.598129 148.398621,212.552094 
	C141.314407,187.989151 149.229477,171.616074 171.490936,158.816437 
	C204.696335,139.724380 237.740463,120.352043 270.881317,101.147499 
	C277.163300,97.507217 283.471069,93.884384 289.949829,90.616051 
	C305.229126,82.908127 322.001221,86.570679 329.919098,102.834198 
	C339.818451,123.167648 349.755219,143.487106 359.237549,164.015030 
	C360.738983,167.265366 360.574524,171.676941 360.016815,175.376190 
	C359.462646,179.051743 356.673004,178.804962 354.774597,176.107880 
	C353.094055,173.720245 351.939331,170.943497 350.691528,168.273529 
	C344.125031,154.222488 337.685059,140.111511 331.005585,126.114685 
	C329.383942,122.716530 327.217438,119.527390 324.967499,116.489494 
	C317.881836,106.922195 307.859314,106.436089 297.597931,108.774620 
	C284.146393,111.840172 273.169342,120.152657 261.550720,127.076225 
	C242.406723,138.484177 223.130280,149.669708 203.923218,160.971985 
	C189.272064,169.593338 174.497131,178.017227 160.059799,186.983902 
	C152.130310,191.908737 150.646347,198.469467 155.284836,206.656616 
	C168.304535,229.636978 181.577057,252.474411 194.800659,275.338837 
	C206.290726,295.205902 217.828598,315.045380 229.384750,334.874084 
	C241.601120,355.835602 253.883957,376.758331 266.097717,397.721375 
	C271.667694,407.281372 276.664673,417.213654 282.768127,426.415558 
	C292.468781,441.040833 303.713776,444.227356 320.167053,436.866943 
	C339.320953,428.298401 358.000793,418.674744 376.949524,409.641449 
	C390.648254,403.110931 404.450012,396.796539 418.872803,390.222412 
	C420.032806,390.044891 420.525818,390.030762 421.018829,390.016602 
	C421.018829,390.016602 420.996765,389.999817 421.006409,390.400360 
	C421.687500,394.239594 422.358917,397.678253 423.030365,401.116943 
z"/>
<path fill="#745D58" opacity="1.000000" stroke="none" 
	d="
M423.343994,400.949982 
	C422.358917,397.678253 421.687500,394.239594 421.000061,390.388031 
	C423.025360,392.707275 425.066742,395.439362 427.243225,398.499359 
	C426.138092,399.479156 424.897858,400.131073 423.343994,400.949982 
z"/>
<path fill="#745D58" opacity="1.000000" stroke="none" 
	d="
M421.054626,389.646912 
	C420.525818,390.030762 420.032806,390.044891 419.167480,390.049133 
	C418.873871,388.326599 418.952606,386.613983 419.088806,384.480743 
	C419.794312,385.799133 420.442383,387.538147 421.054626,389.646912 
z"/>
<path fill="#000000" opacity="1.000000" stroke="none" 
	d="
M627.000000,47.976166 
	C735.481018,47.970772 843.461975,47.965347 951.442993,47.960407 
	C952.942688,47.960339 954.451416,47.860687 955.940674,47.987125 
	C964.407654,48.706005 967.050720,51.492199 967.049500,59.633282 
	C967.033752,163.448029 967.015503,267.262756 966.997253,371.077515 
	C966.995972,378.573517 964.558960,381.021515 956.908569,381.021942 
	C825.931641,381.029480 694.954712,380.970459 563.977905,381.066833 
	C536.702393,381.086884 509.427979,381.810638 482.151855,381.931854 
	C470.373413,381.984192 458.577728,381.578064 446.816284,380.913391 
	C438.058990,380.418579 428.933868,372.853241 428.942932,361.914673 
	C429.018555,270.597534 429.008911,179.280273 428.939301,87.963112 
	C428.933105,79.847816 428.577209,71.712303 427.926514,63.622963 
	C427.036407,52.557072 434.354889,48.257355 443.375275,48.108227 
	C463.919067,47.768597 484.472076,47.979660 505.021332,47.977509 
	C545.514221,47.973270 586.007141,47.976208 627.000000,47.976166 
M484.000031,234.339722 
	C484.000031,234.839523 483.999542,235.339340 484.000122,235.839142 
	C484.008057,242.926514 485.822845,245.078705 491.724518,244.999924 
	C497.258148,244.926025 498.996887,242.750931 498.999451,235.889893 
	C499.001801,229.633667 498.999969,223.377441 498.999969,217.325165 
	C509.724304,217.325165 519.796082,217.325165 530.000000,217.325165 
	C530.000000,224.135513 529.975586,230.621399 530.007202,237.107025 
	C530.035278,242.881516 532.072083,244.998016 537.493042,244.999954 
	C542.921936,245.001892 544.983032,242.888000 544.991150,237.120941 
	C545.015625,219.794617 545.009766,202.468246 544.994629,185.141907 
	C544.989502,179.240677 543.038452,177.080032 537.755920,177.000092 
	C532.092102,176.914398 530.024536,179.064194 530.004578,185.129852 
	C529.983948,191.384430 530.000000,197.639114 530.000000,203.667908 
	C519.261536,203.667908 509.189453,203.667908 498.999969,203.667908 
	C498.999969,197.348450 499.010803,191.360550 498.997009,185.372711 
	C498.982605,179.118683 497.067719,176.996292 491.486908,177.000061 
	C485.921631,177.003815 484.007965,179.129776 484.003662,185.398849 
	C483.992767,201.392410 484.000031,217.385956 484.000031,234.339722 
M886.193848,195.818512 
	C885.796631,190.393967 885.360046,184.971924 885.014709,179.544083 
	C884.739380,175.217300 882.468933,173.074753 878.178162,172.998489 
	C873.599182,172.917099 871.049866,175.114731 871.031250,179.687836 
	C870.951965,199.155396 870.959473,218.623566 871.025024,238.091232 
	C871.040771,242.770035 873.430481,244.985504 877.957153,245.002579 
	C882.503906,245.019730 884.867065,242.812057 884.979065,238.176422 
	C885.087524,233.686462 884.705994,229.166611 885.085205,224.706238 
	C885.471436,220.163132 885.891357,215.444168 887.444641,211.224838 
	C889.328186,206.108414 895.053345,204.333694 901.428772,205.820679 
	C906.186096,206.930283 908.002197,209.574203 908.033997,215.621841 
	C908.071533,222.776489 907.970032,229.932602 908.075134,237.085922 
	C908.149048,242.113876 911.262817,245.124893 915.944275,245.002686 
	C920.962280,244.871674 922.972473,242.687210 922.994019,237.189972 
	C923.026611,228.870483 923.172852,220.546158 922.946350,212.232712 
	C922.778015,206.050781 920.470886,200.740829 915.398987,196.778442 
	C906.075684,189.494553 896.600586,191.373505 886.193848,195.818512 
M683.900146,230.398758 
	C688.669800,240.579941 699.552673,247.113007 712.612488,245.929352 
	C724.343750,244.866119 732.652893,238.669617 736.655884,227.577652 
	C740.316895,217.433533 737.805359,207.884186 730.588257,200.390793 
	C722.158447,191.638336 711.372559,189.906830 699.877502,193.662643 
	C691.132019,196.520081 685.020081,202.371216 682.421570,211.240601 
	C680.613953,217.410629 681.224548,223.716705 683.900146,230.398758 
M766.326355,230.443481 
	C765.198303,227.972290 763.321655,225.571030 763.083130,223.016785 
	C762.376648,215.453232 762.221680,207.831528 762.041382,200.228058 
	C761.940918,195.987961 760.165039,193.390594 755.852051,193.025650 
	C751.525940,192.659607 748.182983,194.369308 748.080383,199.018784 
	C747.852295,209.359299 747.479248,219.762558 748.373779,230.035019 
	C748.844849,235.445175 752.308594,240.178268 757.693054,242.996399 
	C767.059998,247.898834 775.917053,246.505875 784.144714,241.461746 
	C787.325073,245.298172 791.381836,245.569412 795.302673,244.763000 
	C798.980408,244.006561 800.087158,240.978973 800.049988,237.277695 
	C799.927917,225.121170 800.025452,212.962616 799.994629,200.804962 
	C799.980286,195.133575 797.839233,192.973572 792.429749,192.995880 
	C787.066101,193.017990 785.097229,195.171478 784.984375,200.945267 
	C784.854431,207.591064 785.012695,214.271759 784.370483,220.871597 
	C783.348328,231.376419 776.779114,235.003250 766.326355,230.443481 
M597.041321,203.728882 
	C596.522339,211.126038 596.506958,218.606277 595.304871,225.890717 
	C594.521606,230.637497 589.677551,233.059814 584.478088,232.502823 
	C579.842468,232.006226 576.068359,230.125122 575.649475,224.828110 
	C575.245850,219.725479 575.213806,214.594543 574.927734,209.481125 
	C574.718262,205.738098 574.520264,201.982468 574.031860,198.269989 
	C573.375610,193.281525 569.709290,192.488159 565.631531,193.055023 
	C561.646118,193.609070 559.935791,196.235184 559.972900,200.241806 
	C560.049988,208.559387 560.003967,216.878204 559.994202,225.196487 
	C559.982788,234.863052 568.033386,243.683395 576.072998,245.276718 
	C584.303772,246.907913 590.996216,244.546066 597.536011,240.708923 
	C598.311340,245.747940 602.246582,244.838074 605.294312,244.936386 
	C609.601074,245.075333 611.956665,242.640198 611.979309,238.341690 
	C612.046753,225.531860 612.056885,212.721130 611.976013,199.911453 
	C611.946289,195.204666 609.731689,193.147812 605.047546,192.996170 
	C599.590027,192.819489 597.099854,195.868439 597.041321,203.728882 
M641.040710,216.499969 
	C641.041138,223.488739 640.870667,230.483337 641.109680,237.463943 
	C641.241394,241.309265 643.022400,244.467010 647.327637,244.964020 
	C652.670959,245.580856 654.933777,243.932037 656.014832,238.913376 
	C656.455566,236.867264 656.890625,234.767349 656.901550,232.689651 
	C656.977844,218.260178 656.941833,203.830124 656.941833,189.003006 
	C661.800415,189.003006 666.251587,189.049072 670.701355,188.990265 
	C675.299927,188.929489 678.248352,186.587662 677.947021,182.940857 
	C677.586670,178.579773 674.757690,176.959381 670.574402,176.975647 
	C656.264282,177.031296 641.953735,176.977982 627.643494,177.007401 
	C622.709595,177.017548 619.637146,179.429764 620.053589,183.211807 
	C620.531067,187.546997 623.398865,189.141464 627.580444,189.029556 
	C632.002563,188.911209 636.430298,189.003006 641.040710,189.003006 
	C641.040710,198.232040 641.040710,206.866028 641.040710,216.499969 
M856.571472,239.939362 
	C858.811890,237.103653 860.803101,234.138672 857.377380,230.918915 
	C854.203308,227.935669 850.652771,228.053024 847.132080,230.417908 
	C841.049500,234.503738 833.477539,233.978699 829.028625,229.124176 
	C824.572998,224.262329 824.396851,214.366516 828.673767,209.190994 
	C832.908508,204.066574 840.266479,203.367630 846.701416,207.478394 
	C851.233582,210.373627 856.271729,209.741699 858.508545,205.997513 
	C860.316406,202.971283 858.156067,198.636612 853.773987,195.968063 
	C848.395691,192.692825 842.583557,191.573013 836.399048,192.009048 
	C822.014832,193.023224 810.527283,204.318283 810.012146,217.901413 
	C809.589844,229.037079 814.966492,237.415985 824.231812,242.389160 
	C834.770691,248.045883 845.804749,247.610062 856.571472,239.939362 
M904.037659,267.400879 
	C903.014282,264.538818 902.279358,261.520111 900.845764,258.880890 
	C900.129883,257.562988 898.233215,256.485626 896.688477,256.157776 
	C895.633728,255.933929 893.526001,256.899384 893.151001,257.837524 
	C889.943726,265.860992 886.994873,273.988953 884.067200,282.121124 
	C883.779846,282.919403 884.152466,283.955292 884.215149,284.830261 
	C887.312500,285.160889 889.869385,285.523010 890.312500,281.491608 
	C890.416199,280.548004 892.669128,278.982056 893.685120,279.155548 
	C896.951721,279.713409 901.285217,276.633881 903.383179,281.066345 
	C905.070496,284.631165 907.146362,285.955200 910.971741,284.534271 
	C908.826965,279.031860 906.682251,273.529663 904.037659,267.400879 
M921.000000,264.603180 
	C921.000000,255.809814 921.000000,255.809814 915.276489,256.386841 
	C915.276489,265.898712 915.276489,275.413391 915.276489,284.794281 
	C919.580383,285.706818 921.398804,284.397583 921.078186,279.967316 
	C920.732605,275.193329 921.000000,270.374969 921.000000,264.603180 
z"/>
<path fill="#FFFFFF" opacity="1.000000" stroke="none" 
	d="
M484.000031,233.859619 
	C484.000031,217.385956 483.992767,201.392410 484.003662,185.398849 
	C484.007965,179.129776 485.921631,177.003815 491.486908,177.000061 
	C497.067719,176.996292 498.982605,179.118683 498.997009,185.372711 
	C499.010803,191.360550 498.999969,197.348450 498.999969,203.667908 
	C509.189453,203.667908 519.261536,203.667908 530.000000,203.667908 
	C530.000000,197.639114 529.983948,191.384430 530.004578,185.129852 
	C530.024536,179.064194 532.092102,176.914398 537.755920,177.000092 
	C543.038452,177.080032 544.989502,179.240677 544.994629,185.141907 
	C545.009766,202.468246 545.015625,219.794617 544.991150,237.120941 
	C544.983032,242.888000 542.921936,245.001892 537.493042,244.999954 
	C532.072083,244.998016 530.035278,242.881516 530.007202,237.107025 
	C529.975586,230.621399 530.000000,224.135513 530.000000,217.325165 
	C519.796082,217.325165 509.724304,217.325165 498.999969,217.325165 
	C498.999969,223.377441 499.001801,229.633667 498.999451,235.889893 
	C498.996887,242.750931 497.258148,244.926025 491.724518,244.999924 
	C485.822845,245.078705 484.008057,242.926514 484.000122,235.839142 
	C483.999542,235.339340 484.000031,234.839523 484.000031,233.859619 
z"/>
<path fill="#FEFEFE" opacity="1.000000" stroke="none" 
	d="
M886.604065,195.934357 
	C896.600586,191.373505 906.075684,189.494553 915.398987,196.778442 
	C920.470886,200.740829 922.778015,206.050781 922.946350,212.232712 
	C923.172852,220.546158 923.026611,228.870483 922.994019,237.189972 
	C922.972473,242.687210 920.962280,244.871674 915.944275,245.002686 
	C911.262817,245.124893 908.149048,242.113876 908.075134,237.085922 
	C907.970032,229.932602 908.071533,222.776489 908.033997,215.621841 
	C908.002197,209.574203 906.186096,206.930283 901.428772,205.820679 
	C895.053345,204.333694 889.328186,206.108414 887.444641,211.224838 
	C885.891357,215.444168 885.471436,220.163132 885.085205,224.706238 
	C884.705994,229.166611 885.087524,233.686462 884.979065,238.176422 
	C884.867065,242.812057 882.503906,245.019730 877.957153,245.002579 
	C873.430481,244.985504 871.040771,242.770035 871.025024,238.091232 
	C870.959473,218.623566 870.951965,199.155396 871.031250,179.687836 
	C871.049866,175.114731 873.599182,172.917099 878.178162,172.998489 
	C882.468933,173.074753 884.739380,175.217300 885.014709,179.544083 
	C885.360046,184.971924 885.796631,190.393967 886.604065,195.934357 
z"/>
<path fill="#FCFCFC" opacity="1.000000" stroke="none" 
	d="
M683.622559,230.110413 
	C681.224548,223.716705 680.613953,217.410629 682.421570,211.240601 
	C685.020081,202.371216 691.132019,196.520081 699.877502,193.662643 
	C711.372559,189.906830 722.158447,191.638336 730.588257,200.390793 
	C737.805359,207.884186 740.316895,217.433533 736.655884,227.577652 
	C732.652893,238.669617 724.343750,244.866119 712.612488,245.929352 
	C699.552673,247.113007 688.669800,240.579941 683.622559,230.110413 
M709.540283,204.850037 
	C701.121826,205.354340 696.653809,210.628723 696.853821,219.826111 
	C697.022400,227.576675 701.980774,232.863846 709.304077,233.101944 
	C716.572815,233.338242 721.719177,228.317108 722.289917,220.432236 
	C722.957214,211.213013 718.782654,205.744873 709.540283,204.850037 
z"/>
<path fill="#FDFDFD" opacity="1.000000" stroke="none" 
	d="
M766.652161,230.698486 
	C776.779114,235.003250 783.348328,231.376419 784.370483,220.871597 
	C785.012695,214.271759 784.854431,207.591064 784.984375,200.945267 
	C785.097229,195.171478 787.066101,193.017990 792.429749,192.995880 
	C797.839233,192.973572 799.980286,195.133575 799.994629,200.804962 
	C800.025452,212.962616 799.927917,225.121170 800.049988,237.277695 
	C800.087158,240.978973 798.980408,244.006561 795.302673,244.763000 
	C791.381836,245.569412 787.325073,245.298172 784.144714,241.461746 
	C775.917053,246.505875 767.059998,247.898834 757.693054,242.996399 
	C752.308594,240.178268 748.844849,235.445175 748.373779,230.035019 
	C747.479248,219.762558 747.852295,209.359299 748.080383,199.018784 
	C748.182983,194.369308 751.525940,192.659607 755.852051,193.025650 
	C760.165039,193.390594 761.940918,195.987961 762.041382,200.228058 
	C762.221680,207.831528 762.376648,215.453232 763.083130,223.016785 
	C763.321655,225.571030 765.198303,227.972290 766.652161,230.698486 
z"/>
<path fill="#FDFDFD" opacity="1.000000" stroke="none" 
	d="
M597.041321,203.263840 
	C597.099854,195.868439 599.590027,192.819489 605.047546,192.996170 
	C609.731689,193.147812 611.946289,195.204666 611.976013,199.911453 
	C612.056885,212.721130 612.046753,225.531860 611.979309,238.341690 
	C611.956665,242.640198 609.601074,245.075333 605.294312,244.936386 
	C602.246582,244.838074 598.311340,245.747940 597.536011,240.708923 
	C590.996216,244.546066 584.303772,246.907913 576.072998,245.276718 
	C568.033386,243.683395 559.982788,234.863052 559.994202,225.196487 
	C560.003967,216.878204 560.049988,208.559387 559.972900,200.241806 
	C559.935791,196.235184 561.646118,193.609070 565.631531,193.055023 
	C569.709290,192.488159 573.375610,193.281525 574.031860,198.269989 
	C574.520264,201.982468 574.718262,205.738098 574.927734,209.481125 
	C575.213806,214.594543 575.245850,219.725479 575.649475,224.828110 
	C576.068359,230.125122 579.842468,232.006226 584.478088,232.502823 
	C589.677551,233.059814 594.521606,230.637497 595.304871,225.890717 
	C596.506958,218.606277 596.522339,211.126038 597.041321,203.263840 
z"/>
<path fill="#FDFDFD" opacity="1.000000" stroke="none" 
	d="
M641.040710,215.999985 
	C641.040710,206.866028 641.040710,198.232040 641.040710,189.003006 
	C636.430298,189.003006 632.002563,188.911209 627.580444,189.029556 
	C623.398865,189.141464 620.531067,187.546997 620.053589,183.211807 
	C619.637146,179.429764 622.709595,177.017548 627.643494,177.007401 
	C641.953735,176.977982 656.264282,177.031296 670.574402,176.975647 
	C674.757690,176.959381 677.586670,178.579773 677.947021,182.940857 
	C678.248352,186.587662 675.299927,188.929489 670.701355,188.990265 
	C666.251587,189.049072 661.800415,189.003006 656.941833,189.003006 
	C656.941833,203.830124 656.977844,218.260178 656.901550,232.689651 
	C656.890625,234.767349 656.455566,236.867264 656.014832,238.913376 
	C654.933777,243.932037 652.670959,245.580856 647.327637,244.964020 
	C643.022400,244.467010 641.241394,241.309265 641.109680,237.463943 
	C640.870667,230.483337 641.041138,223.488739 641.040710,215.999985 
z"/>
<path fill="#FCFCFC" opacity="1.000000" stroke="none" 
	d="
M856.285645,240.199921 
	C845.804749,247.610062 834.770691,248.045883 824.231812,242.389160 
	C814.966492,237.415985 809.589844,229.037079 810.012146,217.901413 
	C810.527283,204.318283 822.014832,193.023224 836.399048,192.009048 
	C842.583557,191.573013 848.395691,192.692825 853.773987,195.968063 
	C858.156067,198.636612 860.316406,202.971283 858.508545,205.997513 
	C856.271729,209.741699 851.233582,210.373627 846.701416,207.478394 
	C840.266479,203.367630 832.908508,204.066574 828.673767,209.190994 
	C824.396851,214.366516 824.572998,224.262329 829.028625,229.124176 
	C833.477539,233.978699 841.049500,234.503738 847.132080,230.417908 
	C850.652771,228.053024 854.203308,227.935669 857.377380,230.918915 
	C860.803101,234.138672 858.811890,237.103653 856.285645,240.199921 
z"/>
<path fill="#FFFFFF" opacity="1.000000" stroke="none" 
	d="
M904.287598,267.714172 
	C906.682251,273.529663 908.826965,279.031860 910.971741,284.534271 
	C907.146362,285.955200 905.070496,284.631165 903.383179,281.066345 
	C901.285217,276.633881 896.951721,279.713409 893.685120,279.155548 
	C892.669128,278.982056 890.416199,280.548004 890.312500,281.491608 
	C889.869385,285.523010 887.312500,285.160889 884.215149,284.830261 
	C884.152466,283.955292 883.779846,282.919403 884.067200,282.121124 
	C886.994873,273.988953 889.943726,265.860992 893.151001,257.837524 
	C893.526001,256.899384 895.633728,255.933929 896.688477,256.157776 
	C898.233215,256.485626 900.129883,257.562988 900.845764,258.880890 
	C902.279358,261.520111 903.014282,264.538818 904.287598,267.714172 
M895.422485,267.059174 
	C894.730225,269.298492 894.037964,271.537842 893.328491,273.832886 
	C895.841370,273.832886 898.230469,273.832886 900.969482,273.832886 
	C899.528442,270.452148 898.202698,267.341919 896.876953,264.231659 
	C896.616272,264.335266 896.355530,264.438843 896.094788,264.542450 
	C896.047363,265.187286 895.999939,265.832123 895.422485,267.059174 
z"/>
<path fill="#FFFFFF" opacity="1.000000" stroke="none" 
	d="
M921.000000,265.089600 
	C921.000000,270.374969 920.732605,275.193329 921.078186,279.967316 
	C921.398804,284.397583 919.580383,285.706818 915.276489,284.794281 
	C915.276489,275.413391 915.276489,265.898712 915.276489,256.386841 
	C921.000000,255.809814 921.000000,255.809814 921.000000,265.089600 
z"/>
<path fill="#040404" opacity="1.000000" stroke="none" 
	d="
M709.967163,204.850189 
	C718.782654,205.744873 722.957214,211.213013 722.289917,220.432236 
	C721.719177,228.317108 716.572815,233.338242 709.304077,233.101944 
	C701.980774,232.863846 697.022400,227.576675 696.853821,219.826111 
	C696.653809,210.628723 701.121826,205.354340 709.967163,204.850189 
z"/>
<path fill="#000000" opacity="1.000000" stroke="none" 
	d="
M895.687500,266.768066 
	C895.999939,265.832123 896.047363,265.187286 896.094788,264.542450 
	C896.355530,264.438843 896.616272,264.335266 896.876953,264.231659 
	C898.202698,267.341919 899.528442,270.452148 900.969482,273.832886 
	C898.230469,273.832886 895.841370,273.832886 893.328491,273.832886 
	C894.037964,271.537842 894.730225,269.298492 895.687500,266.768066 
z"/>
</svg>